<svg width="1200" height="360" viewBox="0 0 1200 360" fill="none" xmlns="http://www.w3.org/2000/svg">
  <defs>
    <linearGradient id="bg" x1="0" y1="0" x2="1200" y2="360" gradientUnits="userSpaceOnUse">
      <stop offset="0" stop-color="#07111F"/>
      <stop offset="0.48" stop-color="#102C34"/>
      <stop offset="1" stop-color="#061018"/>
    </linearGradient>
    <linearGradient id="depth" x1="250" y1="245" x2="985" y2="110" gradientUnits="userSpaceOnUse">
      <stop offset="0" stop-color="#FF3B30"/>
      <stop offset="0.45" stop-color="#F8C24E"/>
      <stop offset="1" stop-color="#2F80ED"/>
    </linearGradient>
    <radialGradient id="glow" cx="0" cy="0" r="1" gradientUnits="userSpaceOnUse" gradientTransform="translate(910 120) rotate(145) scale(470 250)">
      <stop offset="0" stop-color="#42E8B4" stop-opacity="0.34"/>
      <stop offset="1" stop-color="#42E8B4" stop-opacity="0"/>
    </radialGradient>
    <filter id="soft" x="-20%" y="-20%" width="140%" height="140%">
      <feGaussianBlur stdDeviation="18"/>
    </filter>
  </defs>

  <rect width="1200" height="360" rx="34" fill="url(#bg)"/>
  <rect width="1200" height="360" rx="34" fill="url(#glow)"/>

  <g opacity="0.13">
    <path d="M0 70H1200M0 130H1200M0 190H1200M0 250H1200M0 310H1200" stroke="#BCEFFF"/>
    <path d="M90 0V360M180 0V360M270 0V360M360 0V360M450 0V360M540 0V360M630 0V360M720 0V360M810 0V360M900 0V360M990 0V360M1080 0V360" stroke="#BCEFFF"/>
  </g>

  <g transform="translate(56 62)">
    <rect x="0" y="0" width="184" height="118" rx="28" fill="#DDEAF4" opacity="0.95"/>
    <rect x="18" y="23" width="148" height="72" rx="36" fill="#07111F"/>
    <circle cx="60" cy="59" r="19" fill="#1E88FF"/>
    <circle cx="124" cy="59" r="19" fill="#1E88FF"/>
    <circle cx="60" cy="59" r="7" fill="#BCEFFF"/>
    <circle cx="124" cy="59" r="7" fill="#BCEFFF"/>
    <path d="M42 121L23 158M142 121L161 158" stroke="#DDEAF4" stroke-width="12" stroke-linecap="round"/>
  </g>

  <g transform="translate(275 78)">
    <text x="0" y="0" fill="#EAF7FF" font-family="Segoe UI, Arial, sans-serif" font-size="58" font-weight="800" letter-spacing="-1.5">
      Quest3 RGB-D Align
    </text>
    <text x="2" y="48" fill="#91B7C7" font-family="Segoe UI, Arial, sans-serif" font-size="22" font-weight="500">
      Capture Quest passthrough RGB + Meta Environment Depth and align them correctly.
    </text>
    <g transform="translate(0 86)">
      <rect x="0" y="0" width="146" height="34" rx="17" fill="#123B47" stroke="#2E9FB6"/>
      <text x="18" y="23" fill="#BCEFFF" font-family="Segoe UI, Arial, sans-serif" font-size="15" font-weight="700">Unity Capture</text>
      <rect x="162" y="0" width="167" height="34" rx="17" fill="#432419" stroke="#D46F35"/>
      <text x="181" y="23" fill="#FFD8B9" font-family="Segoe UI, Arial, sans-serif" font-size="15" font-weight="700">Python Alignment</text>
      <rect x="345" y="0" width="143" height="34" rx="17" fill="#182D52" stroke="#4F85FF"/>
      <text x="365" y="23" fill="#D8E6FF" font-family="Segoe UI, Arial, sans-serif" font-size="15" font-weight="700">Point Clouds</text>
      <rect x="504" y="0" width="151" height="34" rx="17" fill="#20331F" stroke="#79C66A"/>
      <text x="524" y="23" fill="#DCF8D8" font-family="Segoe UI, Arial, sans-serif" font-size="15" font-weight="700">Any2Full Ready</text>
    </g>
  </g>

  <g transform="translate(262 231)">
    <path d="M0 28C106 -18 213 -8 319 17C426 42 532 80 640 34C705 6 768 -1 830 12" stroke="url(#depth)" stroke-width="34" stroke-linecap="round" opacity="0.9" filter="url(#soft)"/>
    <path d="M0 28C106 -18 213 -8 319 17C426 42 532 80 640 34C705 6 768 -1 830 12" stroke="url(#depth)" stroke-width="8" stroke-linecap="round"/>
    <g fill="#EAF7FF">
      <circle cx="0" cy="28" r="5"/>
      <circle cx="160" cy="2" r="5"/>
      <circle cx="319" cy="17" r="5"/>
      <circle cx="480" cy="52" r="5"/>
      <circle cx="640" cy="34" r="5"/>
      <circle cx="830" cy="12" r="5"/>
    </g>
  </g>

  <rect x="928" y="286" width="202" height="38" rx="19" fill="#0E1B2A" stroke="#284760"/>
  <circle cx="954" cy="305" r="7" fill="#FF3B30"/>
  <circle cx="980" cy="305" r="7" fill="#F8C24E"/>
  <circle cx="1006" cy="305" r="7" fill="#2F80ED"/>
  <text x="1025" y="311" fill="#9FC0CF" font-family="Segoe UI, Arial, sans-serif" font-size="16" font-weight="700">depth preview</text>
</svg>
